<?xml version="1.0" encoding="utf-8"?>
<!-- Generator: Adobe Illustrator 16.0.0, SVG Export Plug-In . SVG Version: 6.00 Build 0)  -->
<!DOCTYPE svg PUBLIC "-//W3C//DTD SVG 1.1//EN" "http://www.w3.org/Graphics/SVG/1.1/DTD/svg11.dtd">
<svg version="1.1" id="Layer_1" xmlns="http://www.w3.org/2000/svg" xmlns:xlink="http://www.w3.org/1999/xlink" x="0px" y="0px"
	 width="612px" height="494px" viewBox="0 62.5 612 494" enable-background="new 0 62.5 612 494" xml:space="preserve">
<title>graphics-logo copy</title>
<g>
	<path id="Fill-38_3_" fill="#37474F" d="M598.533,330.27c0,5.256-4.271,9.525-9.525,9.525s-9.524-4.27-9.524-9.525V229.432
		c0-13.467-10.84-24.306-23.979-24.306l-1.642-0.328v-18.722h1.642c23.649,0,43.029,19.379,43.029,43.029L598.533,330.27
		L598.533,330.27z M40.802,228.446v100.838c0,5.255-4.27,9.524-9.525,9.524c-5.255,0-9.525-4.27-9.525-9.524V228.446
		c0-23.649,19.379-43.029,43.357-43.029l1.971,0.328v18.066l-1.971,0.328C51.641,204.14,40.802,214.979,40.802,228.446
		L40.802,228.446z M553.534,174.578v-16.095c0-50.912-41.386-91.97-91.97-91.97H158.72c-50.583,0-91.97,41.386-91.97,91.97v11.168
		h-4.927c-32.846,0-59.123,26.277-59.123,58.795v100.838c0,32.518,26.277,58.467,59.123,58.467h43.029v-74.233
		c1.314-2.955,2.299-5.911,2.299-9.196V158.484c0-28.576,22.992-51.569,51.569-51.569h302.844c28.248,0,51.568,22.992,51.568,51.569
		v16.095h-2.299v218.1h42.7c32.188,0,58.466-26.276,58.466-58.467V233.373C612,200.856,586.052,174.907,553.534,174.578
		L553.534,174.578z"/>
	<path id="Fill-39_3_" fill="#5F6C72" d="M555.504,186.732h-1.642v18.394l1.642,0.328c13.139,0,23.979,10.839,23.979,24.306v100.838
		c0,5.256,4.27,9.525,9.524,9.525s9.525-4.27,9.525-9.525V229.432C598.533,205.782,579.154,186.732,555.504,186.732"/>
	<path id="Fill-40_3_" fill="#5F6C72" d="M66.75,185.746l-1.971-0.328c-23.978,0-43.357,19.379-43.357,43.029v100.838
		c0,5.255,4.27,9.524,9.525,9.524c5.255,0,9.525-4.27,9.525-9.524V228.446c0-13.467,10.839-23.979,24.306-23.979l1.971-0.328
		L66.75,185.746"/>
	<path id="Fill-41_3_" fill="#31C3A2" d="M461.892,127.937H159.049c-16.752,0-30.547,13.795-30.547,30.547v264.742
		c0,16.753,13.795,30.548,30.547,30.548h46.642c6.898,0,12.482,5.584,12.482,12.481v42.372l50.912-51.24
		c2.299-2.299,5.584-3.612,8.868-3.612h184.268c16.752,0,30.547-13.795,30.547-30.548V158.484
		C492.439,141.732,478.645,127.937,461.892,127.937"/>
	<path id="Fill-42_3_" fill="#37474F" d="M492.439,423.225c0,16.752-13.797,30.547-30.548,30.547H277.624
		c-3.285,0-6.569,1.314-8.868,3.613l-50.912,51.24v-42.372c0-6.898-5.584-12.482-12.482-12.482H158.72
		c-16.752,0-30.547-13.795-30.547-30.547v-264.74c0-17.08,13.795-30.547,30.547-30.547h302.844
		c16.752,0,30.547,13.795,30.547,30.547v264.742 M461.892,102.973H159.049c-30.547,0-55.182,24.963-55.182,55.51v264.742
		c0,30.547,24.963,55.511,55.182,55.511h34.16v59.779c0,4.928,2.956,9.525,7.555,11.496c1.642,0.657,3.285,0.985,4.598,0.985
		c3.285,0,6.241-1.314,8.869-3.613l68.32-68.648h179.014c30.547,0,55.51-24.963,55.51-55.511v-264.74
		C517.074,127.937,492.439,102.973,461.892,102.973"/>
	<path id="Fill-45_3_" fill="#33A48D" d="M492.439,409.43H341.346c-5.255,0-9.854-3.285-11.496-7.883l-20.035-50.912l-20.037,50.912
		c-1.971,4.927-6.569,7.883-11.496,7.883H128.83v-24.963h140.911l28.576-72.262c1.971-4.927,6.569-7.883,11.496-7.883
		c5.256,0,9.854,3.285,11.496,7.883l28.576,72.262h142.553L492.439,409.43"/>
	<polygon id="Fill-46_3_" fill="#37474F" points="492.439,409.43 492.439,409.43 492.439,384.467 492.439,384.467 	"/>
	<path id="Fill-47_3_" fill="#FFFFFF" d="M88.429,324.358c0,22.991,18.722,41.715,41.715,41.715h136.969l30.219-76.532
		c1.971-4.927,6.898-8.212,12.153-8.212c5.584,0,10.182,3.285,12.152,8.212l30.22,76.204h136.641
		c22.992,0,41.715-18.722,41.715-41.715l0.328-123.174H87.772L88.429,324.358"/>
	<path id="Fill-48_3_" fill="#37474F" d="M530.213,324.686c0,22.992-18.722,41.716-41.715,41.716H352.185l-30.219-76.204
		c-1.971-4.927-6.897-8.212-12.153-8.212c-5.254,0-10.182,3.285-12.152,8.212l-30.547,75.875H130.144
		c-22.992,0-41.715-18.723-41.715-41.715l-0.657-122.846h442.441V324.686L530.213,324.686z M552.877,178.848
		c-2.628-2.628-5.912-3.942-9.525-3.942H74.633c-3.613,0-6.898,1.313-9.525,3.942c-2.628,2.628-3.942,5.912-3.942,9.525
		l0.657,136.312c0,37.445,30.547,67.992,67.992,67.992h146.166c5.584,0,10.182-3.285,12.153-8.212l21.351-53.54l21.35,53.54
		c1.971,4.927,6.898,8.212,12.153,8.212h145.509c37.445,0,67.992-30.547,67.992-67.992l0.328-136.312
		C556.818,184.761,555.504,181.148,552.877,178.848L552.877,178.848z"/>
	<path id="Fill-49_3_" fill="#37474F" d="M413.936,281.658c-11.168,0-20.364-9.197-20.364-20.365s9.196-20.693,20.364-20.693
		s20.365,9.197,20.365,20.693C434.63,272.461,425.433,281.658,413.936,281.658L413.936,281.658z M421.163,225.819
		c-22.336,0-40.729,18.066-40.729,40.729v34.489c0,22.336,18.066,40.729,40.729,40.729c22.335,0,40.729-18.065,40.729-40.729
		v-34.489C461.564,244.213,443.498,225.819,421.163,225.819L421.163,225.819z"/>
	<path id="Fill-50_3_" fill="#FFFFFF" d="M434.63,260.964c0-11.168-9.197-20.693-20.365-20.693s-20.364,9.197-20.364,20.693
		s9.196,20.365,20.364,20.365C425.433,281.658,434.63,272.461,434.63,260.964"/>
	<path id="Fill-51_3_" fill="#37474F" d="M192.88,281.658c-11.168,0-20.365-9.197-20.365-20.365s9.197-20.693,20.365-20.693
		s20.365,9.197,20.365,20.693C213.574,272.461,204.377,281.658,192.88,281.658L192.88,281.658z M200.107,225.819
		c-22.336,0-40.729,18.066-40.729,40.729v34.489c0,22.336,18.066,40.729,40.729,40.729c22.336,0,40.729-18.065,40.729-40.729
		v-34.489C240.508,244.213,222.442,225.819,200.107,225.819L200.107,225.819z"/>
	<path id="Fill-52_3_" fill="#FFFFFF" d="M213.574,260.964c0-11.168-9.197-20.693-20.365-20.693s-20.365,9.197-20.365,20.693
		s9.197,20.365,20.365,20.365C204.377,281.658,213.574,272.461,213.574,260.964"/>
</g>
</svg>
