<?xml version="1.0" encoding="utf-8"?>
<!-- Generator: Adobe Illustrator 16.0.0, SVG Export Plug-In . SVG Version: 6.00 Build 0)  -->
<!DOCTYPE svg PUBLIC "-//W3C//DTD SVG 1.1//EN" "http://www.w3.org/Graphics/SVG/1.1/DTD/svg11.dtd">
<svg version="1.1" id="Слой_1" xmlns="http://www.w3.org/2000/svg" xmlns:xlink="http://www.w3.org/1999/xlink" x="0px" y="0px"
	 width="886.25px" height="789.625px" viewBox="92.5 558.5 886.25 789.625" enable-background="new 92.5 558.5 886.25 789.625"
	 xml:space="preserve">
<linearGradient id="SVGID_1_" gradientUnits="userSpaceOnUse" x1="34.6025" y1="1915.1191" x2="34.6025" y2="1904.1078" gradientTransform="matrix(16.875 0 0 -16.875 226.0625 33392.9375)">
	<stop  offset="0" style="stop-color:#6DC7FF"/>
	<stop  offset="1" style="stop-color:#E6ABFF"/>
</linearGradient>
<path fill="url(#SVGID_1_)" d="M784.688,1231.418c-8.657,0-17.297-3.291-23.895-9.89l-47.115-47.098l23.861-23.861l47.114,47.099
	l97.774-97.724l23.861,23.861l-97.74,97.723C801.984,1228.127,793.345,1231.418,784.688,1231.418z"/>
<linearGradient id="SVGID_2_" gradientUnits="userSpaceOnUse" x1="18.2261" y1="1945.5977" x2="18.7261" y2="1898.4319" gradientTransform="matrix(16.875 0 0 -16.875 226.0625 33392.9375)">
	<stop  offset="0" style="stop-color:#1A6DFF"/>
	<stop  offset="1" style="stop-color:#C822FF"/>
</linearGradient>
<path fill="url(#SVGID_2_)" d="M806.676,977.566C808.718,972.065,810,966.193,810,960v-67.5c0-21.972-14.158-40.534-33.75-47.52
	v-39.978c19.592-6.986,33.75-25.549,33.75-47.52v-67.5c0-27.911-22.714-50.625-50.625-50.625H742.5v-16.875
	c0-27.911-22.714-50.625-50.625-50.625h-472.5c-27.911,0-50.625,22.714-50.625,50.625v16.875h-16.875
	c-27.911,0-50.625,22.714-50.625,50.625v67.5c0,21.971,14.158,40.533,33.75,47.52v39.978c-19.592,6.985-33.75,25.548-33.75,47.52
	V960c0,21.972,14.158,40.534,33.75,47.52v39.978c-19.592,6.969-33.75,25.532-33.75,47.503v67.5
	c0,27.911,22.714,50.625,50.625,50.625h16.875V1230c0,27.911,22.714,50.625,50.625,50.625h430.667
	c34.07,41.191,85.556,67.5,143.083,67.5c102.347,0,185.625-83.278,185.625-185.625C978.75,1064.727,902.711,984.553,806.676,977.566
	z M650.042,1044.375H168.75v-33.75h517.979C673.06,1020.227,660.673,1031.533,650.042,1044.375z M742.5,808.125v33.75H168.75v-33.75
	H742.5z M202.5,622.5c0-9.315,7.577-16.875,16.875-16.875h472.5c9.298,0,16.875,7.56,16.875,16.875v16.875H202.5V622.5z M135,690
	c0-9.315,7.577-16.875,16.875-16.875h607.5c9.298,0,16.875,7.56,16.875,16.875v67.5c0,9.315-7.577,16.875-16.875,16.875h-607.5
	c-9.298,0-16.875-7.56-16.875-16.875V690z M135,892.5c0-9.315,7.577-16.875,16.875-16.875h607.5c9.298,0,16.875,7.56,16.875,16.875
	V960c0,9.314-7.577,16.875-16.875,16.875h-607.5c-9.298,0-16.875-7.561-16.875-16.875V892.5z M135,1162.5V1095
	c0-9.314,7.577-16.875,16.875-16.875h476.111c-12.994,25.347-20.486,53.983-20.486,84.375c0,5.687,0.354,11.307,0.86,16.875H151.875
	C142.577,1179.375,135,1171.814,135,1162.5z M219.375,1246.875c-9.298,0-16.875-7.561-16.875-16.875v-16.875h412.206
	c3.341,11.779,7.796,23.051,13.297,33.75H219.375z M793.125,1314.375c-83.733,0-151.875-68.124-151.875-151.875
	s68.142-151.875,151.875-151.875S945,1078.749,945,1162.5S876.858,1314.375,793.125,1314.375z"/>
<linearGradient id="SVGID_3_" gradientUnits="userSpaceOnUse" x1="25.373" y1="1945.6758" x2="25.873" y2="1898.5092" gradientTransform="matrix(16.875 0 0 -16.875 226.0625 33392.9375)">
	<stop  offset="0" style="stop-color:#1A6DFF"/>
	<stop  offset="1" style="stop-color:#C822FF"/>
</linearGradient>
<rect x="607.5" y="909.375" fill="url(#SVGID_3_)" width="101.25" height="33.75"/>
<linearGradient id="SVGID_4_" gradientUnits="userSpaceOnUse" x1="25.5005" y1="1945.6748" x2="26.0005" y2="1898.5081" gradientTransform="matrix(16.875 0 0 -16.875 226.0625 33392.9375)">
	<stop  offset="0" style="stop-color:#1A6DFF"/>
	<stop  offset="1" style="stop-color:#C822FF"/>
</linearGradient>
<rect x="607.5" y="706.875" fill="url(#SVGID_4_)" width="101.25" height="33.75"/>
<linearGradient id="SVGID_5_" gradientUnits="userSpaceOnUse" x1="0.3765" y1="1945.4082" x2="0.8765" y2="1898.2416" gradientTransform="matrix(16.875 0 0 -16.875 226.0625 33392.9375)">
	<stop  offset="0" style="stop-color:#1A6DFF"/>
	<stop  offset="1" style="stop-color:#C822FF"/>
</linearGradient>
<rect x="202.5" y="909.375" fill="url(#SVGID_5_)" width="67.5" height="33.75"/>
<linearGradient id="SVGID_6_" gradientUnits="userSpaceOnUse" x1="6.375" y1="1945.4639" x2="6.8748" y2="1898.3198" gradientTransform="matrix(16.875 0 0 -16.875 226.0625 33392.9375)">
	<stop  offset="0" style="stop-color:#1A6DFF"/>
	<stop  offset="1" style="stop-color:#C822FF"/>
</linearGradient>
<rect x="303.75" y="909.375" fill="url(#SVGID_6_)" width="67.5" height="33.75"/>
<linearGradient id="SVGID_7_" gradientUnits="userSpaceOnUse" x1="0.2485" y1="1945.3916" x2="0.7483" y2="1898.2474" gradientTransform="matrix(16.875 0 0 -16.875 226.0625 33392.9375)">
	<stop  offset="0" style="stop-color:#1A6DFF"/>
	<stop  offset="1" style="stop-color:#C822FF"/>
</linearGradient>
<rect x="202.5" y="1111.875" fill="url(#SVGID_7_)" width="67.5" height="33.75"/>
<linearGradient id="SVGID_8_" gradientUnits="userSpaceOnUse" x1="6.248" y1="1945.4717" x2="6.748" y2="1898.3049" gradientTransform="matrix(16.875 0 0 -16.875 226.0625 33392.9375)">
	<stop  offset="0" style="stop-color:#1A6DFF"/>
	<stop  offset="1" style="stop-color:#C822FF"/>
</linearGradient>
<rect x="303.75" y="1111.875" fill="url(#SVGID_8_)" width="67.5" height="33.75"/>
<linearGradient id="SVGID_9_" gradientUnits="userSpaceOnUse" x1="0.5034" y1="1945.416" x2="1.0037" y2="1898.2268" gradientTransform="matrix(16.875 0 0 -16.875 226.0625 33392.9375)">
	<stop  offset="0" style="stop-color:#1A6DFF"/>
	<stop  offset="1" style="stop-color:#C822FF"/>
</linearGradient>
<rect x="202.5" y="706.875" fill="url(#SVGID_9_)" width="67.5" height="33.75"/>
<linearGradient id="SVGID_10_" gradientUnits="userSpaceOnUse" x1="6.5029" y1="1945.4785" x2="7.0032" y2="1898.2893" gradientTransform="matrix(16.875 0 0 -16.875 226.0625 33392.9375)">
	<stop  offset="0" style="stop-color:#1A6DFF"/>
	<stop  offset="1" style="stop-color:#C822FF"/>
</linearGradient>
<rect x="303.75" y="706.875" fill="url(#SVGID_10_)" width="67.5" height="33.75"/>
</svg>
