<?xml version="1.0" encoding="utf-8"?>
<!-- Generator: Adobe Illustrator 22.0.1, SVG Export Plug-In . SVG Version: 6.00 Build 0)  -->
<svg version="1.1" id="Layer_1" xmlns="http://www.w3.org/2000/svg" xmlns:xlink="http://www.w3.org/1999/xlink" x="0px" y="0px"
	 width="1000px" height="727.2727051px" viewBox="0 0 1000 727.2727051" enable-background="new 0 0 1000 727.2727051"
	 xml:space="preserve">
<g>
	<path fill="#FF0000" d="M727.5,7.0454478L522.500061,123.6363678c-13.8636475,7.9545288-30.9091187,7.9545288-45.0000305,0
		L272.5,7.0454478C265.4545593,3.1818151,257.7272644,0,250,0s-15.4545441,3.1818151-22.5000153,7.0454478L22.954546,123.1818237
		C8.863636,131.3636322,0,146.3636475,0,162.7272644v259.5454407c0,16.363678,8.863636,31.363678,22.954546,39.5454712L477.5,720
		c7.0454712,4.0908813,14.7727051,7.2727051,22.5,7.2727051c7.7272644,0,15.4545898-3.1818237,22.5-7.0454102
		l454.5454712-258.1818237C991.3636475,453.8636475,1000,438.8636169,1000,422.4999695V162.7272644
		c0-16.3636169-8.8636475-31.3636322-22.9545288-39.5454407L772.5,7.0454478C765.4545898,3.1818151,757.7272949,0,750,0
		S734.5454712,3.1818151,727.5,7.0454478z"/>
	<path fill="#FFFFFF" d="M755.6818237,22.7272663v255.6818237l221.5909424-130.6818085L755.6818237,22.7272663z"/>
</g>
</svg>
